<?xml version="1.0" encoding="UTF-8"?>
<svg id="Calque_1" data-name="Calque 1" xmlns="http://www.w3.org/2000/svg" viewBox="0 0 636.21 291.25">
  <defs>
    <style>
      .cls-1 {
        fill: #cc0b0b;
        font-size: 219px;
        letter-spacing: .12em;
      }

      .cls-2 {
        fill: #cb0c0c;
        stroke: #cb0c0c;
        stroke-miterlimit: 10;
        stroke-width: 10px;
      }

      .cls-3 {
        letter-spacing: .12em;
      }

      .cls-3, .cls-4, .cls-5 {
        fill: #584641;
        font-size: 150px;
      }

      .cls-4 {
        letter-spacing: .14em;
      }

      .cls-5 {
        letter-spacing: .11em;
      }

      .cls-6 {
        font-family: Bahnschrift-Bold, Bahnschrift;
        font-variation-settings: 'wght' 700, 'wdth' 100;
      }
    </style>
  </defs>
  <text class="cls-6" transform="translate(41.26 249.35)"><tspan class="cls-1" x="0" y="0">S</tspan><tspan class="cls-4" x="161.12" y="0">T</tspan><tspan class="cls-3" x="254.27" y="0">E</tspan><tspan class="cls-5" x="361.92" y="0">G</tspan><tspan class="cls-3" x="475.43" y="0">I</tspan></text>
  <path class="cls-2" d="M260.6,47.87c1.78-.21,3.78,.08,5.79,.12,1.14,.02,1.6,.53,1.61,1.69,.05,4.31,.16,8.61,.25,12.91,.02,1.05,.03,2.11,.08,3.16,.13,3,2.23,4.47,5.03,3.41,5.26-2,10.49-4.08,15.74-6.14,26.13-10.26,52.25-20.52,78.38-30.77,4.63-1.82,4.64-1.84,9.28-.04,39.97,15.48,79.94,30.97,119.9,46.46,21.24,8.23,42.48,16.47,63.72,24.71,1.81,.7,2.23,1.55,1.74,3.47-1.4,5.45-6.39,7.82-11.98,5.66-9.2-3.56-18.39-7.13-27.59-10.69-48.02-18.61-96.04-37.23-144.06-55.84-3.79-1.47-7.6-1.47-11.38,.01-26.54,10.41-53.07,20.82-79.6,31.24-28.32,11.12-56.63,22.26-84.97,33.34-3.6,1.41-7.04,.8-10.13-1.57-.76-.59-1.52-1.19-2.26-1.81-2.5-2.08-2.19-4.4,.81-5.61,4.33-1.75,8.69-3.43,13.04-5.14,14.3-5.62,28.6-11.24,42.91-16.85,1.43-.56,2.8-1.22,4.17-1.89,.88-.43,1.1-1.01,1.09-1.97-.14-7.69-.23-15.38-.31-23.07-.01-1.1,.1-2.19,.17-3.29,.05-.79,.32-1.21,1.26-1.28,2.36-.2,4.72-.16,7.31-.21Z"/>
</svg>